<?xml version="1.0" standalone="no"?>
<!DOCTYPE svg PUBLIC "-//W3C//DTD SVG 20010904//EN"
 "http://www.w3.org/TR/2001/REC-SVG-20010904/DTD/svg10.dtd">
<svg version="1.0" xmlns="http://www.w3.org/2000/svg"
 width="1000.000000pt" height="580.000000pt" viewBox="0 0 1000.000000 580.000000"
 preserveAspectRatio="xMidYMid meet">

<g transform="translate(0.000000,580.000000) scale(0.100000,-0.100000)"
fill="#000000" stroke="none">
<path d="M3650 5764 l-35 -14 35 6 c23 3 30 2 22 -4 -11 -7 -10 -11 4 -16 9
-3 19 -4 22 -1 3 3 1 5 -5 5 -6 0 -9 9 -6 20 3 11 4 20 2 19 -2 0 -20 -7 -39
-15z"/>
<path d="M4750 5735 c239 -130 509 -402 737 -745 392 -590 720 -1461 948
-2519 53 -244 187 -603 325 -868 222 -429 500 -723 767 -812 203 -68 395 -37
577 93 91 65 222 208 305 332 70 106 208 372 251 484 24 63 26 64 -62 -50
-192 -249 -417 -426 -605 -475 -210 -55 -410 31 -572 245 -116 154 -234 391
-310 622 -102 310 -144 552 -216 1233 -51 488 -73 656 -116 870 -98 494 -244
800 -509 1065 -174 175 -338 280 -580 373 -254 98 -573 165 -870 182 -58 3
-116 8 -130 11 -14 2 13 -16 60 -41z"/>
<path d="M3737 5758 c34 -14 73 -46 42 -35 -12 4 -18 -1 -21 -18 -4 -21 -3
-22 19 -14 41 15 50 9 13 -10 -21 -12 -48 -17 -72 -15 -21 2 -38 0 -38 -4 0
-4 14 -9 32 -10 40 -3 51 -12 15 -12 -15 0 -27 -4 -27 -10 0 -5 -5 -10 -11
-10 -5 0 -7 5 -3 11 7 13 6 12 -48 -16 -23 -11 -38 -26 -38 -37 0 -14 -8 -18
-35 -18 -21 0 -38 -6 -41 -14 -3 -7 -23 -19 -45 -26 -21 -7 -39 -19 -39 -27 0
-7 -7 -13 -15 -13 -29 0 -65 -31 -65 -56 0 -21 -5 -24 -37 -24 -20 0 -58 -10
-84 -22 -45 -22 -62 -38 -38 -38 5 0 8 -4 4 -10 -3 -5 -12 -7 -20 -4 -8 4 -12
10 -9 15 3 5 0 10 -5 10 -18 2 -53 15 -75 27 -5 3 -6 0 -2 -6 4 -7 11 -12 17
-12 5 0 32 -16 59 -36 48 -34 52 -36 69 -20 13 12 21 14 26 6 4 -6 4 -14 1
-17 -3 -4 -6 -1 -6 6 0 7 -4 9 -10 6 -17 -10 -12 -38 6 -31 8 3 13 2 10 -3 -8
-12 28 -42 52 -44 11 0 19 -4 16 -8 -2 -4 15 -22 38 -41 24 -18 53 -44 66 -57
12 -13 22 -21 22 -17 0 13 277 -271 369 -378 402 -470 757 -1093 1057 -1856
232 -591 392 -913 624 -1260 414 -617 894 -993 1410 -1106 66 -15 125 -19 265
-18 99 0 198 5 220 10 l40 10 -101 52 c-519 268 -891 800 -1272 1822 -44 118
-118 325 -165 460 -173 496 -226 648 -275 780 -299 811 -573 1303 -919 1647
-91 90 -279 243 -299 243 -4 0 -30 15 -58 34 -71 46 -176 97 -276 134 -94 34
-264 80 -295 79 -11 0 -33 3 -50 7 l-30 6 32 -12z m83 -18 c0 -5 -7 -7 -15 -4
-8 4 -15 8 -15 10 0 2 7 4 15 4 8 0 15 -4 15 -10z m190 -64 c-1 -5 4 -13 12
-17 17 -11 -1 -10 -27 1 l-20 9 20 1 20 1 -20 10 c-17 7 -17 8 -2 6 10 -1 17
-6 17 -11z"/>
<path d="M3628 5733 c7 -3 16 -2 19 1 4 3 -2 6 -13 5 -11 0 -14 -3 -6 -6z"/>
<path d="M3728 5723 c7 -3 16 -2 19 1 4 3 -2 6 -13 5 -11 0 -14 -3 -6 -6z"/>
<path d="M3015 5430 c-3 -6 1 -7 9 -4 18 7 21 14 7 14 -6 0 -13 -4 -16 -10z"/>
<path d="M3110 5391 c0 -9 38 -12 44 -3 2 4 -7 8 -20 8 -13 1 -24 -1 -24 -5z"/>
<path d="M3170 5366 c7 -7 14 -6 21 1 9 9 7 12 -9 10 -14 -1 -18 -5 -12 -11z"/>
<path d="M1341 5319 c-377 -33 -786 -146 -1213 -334 -60 -26 -108 -50 -108
-54 0 -3 33 -13 73 -23 226 -51 627 -263 979 -518 319 -231 606 -479 967 -835
597 -589 1092 -1170 1784 -2095 96 -129 224 -293 283 -365 139 -167 428 -456
569 -569 320 -256 645 -417 993 -493 100 -22 150 -26 348 -30 199 -5 250 -2
375 16 163 24 334 63 500 116 122 39 522 195 516 202 -2 2 -42 -5 -88 -16
-192 -45 -432 -51 -608 -16 -448 90 -858 410 -1276 999 -206 291 -339 510
-717 1181 -288 511 -438 767 -587 1005 -520 829 -1011 1333 -1556 1601 -231
113 -446 180 -689 214 -139 19 -409 27 -545 14z"/>
<path d="M9719 3863 c-48 -51 -137 -180 -208 -299 -35 -60 -47 -73 -74 -78
-18 -3 -165 -26 -327 -51 -162 -25 -306 -48 -320 -51 -17 -4 62 -29 262 -83
157 -42 288 -78 291 -81 2 -3 -28 -77 -67 -165 l-71 -160 -125 -63 -125 -63
126 7 127 6 91 -106 c50 -59 91 -103 91 -98 0 4 -16 62 -35 129 -19 67 -35
127 -35 133 0 18 172 311 181 308 5 -2 104 -93 220 -202 302 -285 286 -280
169 -55 -55 107 -135 262 -178 346 l-76 152 33 78 c104 243 151 432 110 441
-8 1 -35 -19 -60 -45z"/>
<path d="M9032 2448 c-61 -127 -111 -233 -109 -234 7 -8 258 446 252 455 -3 6
-12 11 -18 11 -7 0 -63 -104 -125 -232z"/>
<path d="M8825 2342 c-91 -186 -187 -387 -180 -381 3 3 58 98 121 210 64 112
125 218 135 236 20 31 20 32 1 42 -17 9 -25 -1 -77 -107z"/>
<path d="M8995 2074 c-66 -136 -122 -252 -123 -258 -2 -6 60 100 138 237 77
136 138 252 135 257 -3 6 -12 10 -18 10 -7 0 -66 -111 -132 -246z"/>
</g>
</svg>
